<mxfile host="app.diagrams.net" modified="2023-09-06T03:14:12.653Z" agent="Mozilla/5.0 (Macintosh; Intel Mac OS X 10_15_7) AppleWebKit/605.1.15 (KHTML, like Gecko) Version/16.0 Safari/605.1.15" version="21.7.2" etag="6b_6slLa0HCJUfcQVDiM" type="github">
  <diagram name="PÃ¡gina-1" id="P78LQ22sfJVDAKNDGfrV">
    <mxGraphModel>
      <root>
        <mxCell id="0" />
        <mxCell id="1" parent="0" />
      </root>
    </mxGraphModel>
  </diagram>
</mxfile>
